<svg width="24" height="24" viewBox="0 0 24 24" fill="none" xmlns="http://www.w3.org/2000/svg">
<path d="M13.995 11C13.995 11.3975 13.8766 11.7859 13.6548 12.1158C13.4331 12.4456 13.1181 12.702 12.75 12.852V15.25C12.75 15.4489 12.671 15.6397 12.5303 15.7803C12.3897 15.921 12.1989 16 12 16C11.8011 16 11.6103 15.921 11.4697 15.7803C11.329 15.6397 11.25 15.4489 11.25 15.25V12.856C10.913 12.7207 10.6192 12.4963 10.4001 12.2067C10.181 11.9172 10.0449 11.5734 10.0063 11.2124C9.96775 10.8513 10.0282 10.4866 10.1812 10.1573C10.3342 9.82794 10.574 9.5465 10.8748 9.34311C11.1756 9.13973 11.5261 9.02207 11.8887 9.00276C12.2513 8.98346 12.6123 9.06323 12.933 9.23353C13.2537 9.40383 13.522 9.65822 13.7091 9.96942C13.8962 10.2806 13.995 10.6369 13.995 11ZM3.75 5C3.55109 5 3.36032 5.07902 3.21967 5.21967C3.07902 5.36032 3 5.55109 3 5.75V11C3 16.001 5.958 19.676 11.725 21.948C11.9017 22.0176 12.0983 22.0176 12.275 21.948C18.042 19.676 21 16 21 11V5.75C21 5.55109 20.921 5.36032 20.7803 5.21967C20.6397 5.07902 20.4489 5 20.25 5C17.587 5 14.992 4.057 12.45 2.15C12.3202 2.05263 12.1623 2 12 2C11.8377 2 11.6798 2.05263 11.55 2.15C9.008 4.057 6.413 5 3.75 5ZM4.5 11V6.478C7.077 6.326 9.58 5.388 12 3.678C14.42 5.388 16.923 6.326 19.5 6.478V11C19.5 15.256 17.047 18.379 12 20.442C6.953 18.379 4.5 15.256 4.5 11Z" fill="#ABABAB"/>
</svg>
