<svg width="208" height="176" viewBox="0 0 208 176" fill="none" xmlns="http://www.w3.org/2000/svg">
<path d="M208 168C208 170.122 207.157 172.157 205.657 173.657C204.157 175.157 202.122 176 200 176H8C5.87827 176 3.84344 175.157 2.34315 173.657C0.842854 172.157 0 170.122 0 168V8C0 5.87827 0.842854 3.84344 2.34315 2.34315C3.84344 0.842856 5.87827 0 8 0C10.1217 0 12.1566 0.842856 13.6569 2.34315C15.1571 3.84344 16 5.87827 16 8V116.7L66.3 66.3C67.8168 64.7977 69.8652 63.955 72 63.955C74.1348 63.955 76.1832 64.7977 77.7 66.3L104 92.7L164.7 32H144C141.878 32 139.843 31.1571 138.343 29.6569C136.843 28.1566 136 26.1217 136 24C136 21.8783 136.843 19.8434 138.343 18.3431C139.843 16.8429 141.878 16 144 16H184C186.122 16 188.157 16.8429 189.657 18.3431C191.157 19.8434 192 21.8783 192 24V64C192 66.1217 191.157 68.1566 189.657 69.6569C188.157 71.1571 186.122 72 184 72C181.878 72 179.843 71.1571 178.343 69.6569C176.843 68.1566 176 66.1217 176 64V43.3L109.7 109.7C108.183 111.202 106.135 112.045 104 112.045C101.865 112.045 99.8168 111.202 98.3 109.7L72 83.3L16 139.3V160H200C202.122 160 204.157 160.843 205.657 162.343C207.157 163.843 208 165.878 208 168Z" fill="black"/>
</svg>
